<?xml version="1.0" encoding="utf-8"?>
<!-- Generator: Adobe Illustrator 18.1.1, SVG Export Plug-In . SVG Version: 6.00 Build 0)  -->
<svg version="1.1" id="Layer_1" xmlns="http://www.w3.org/2000/svg" xmlns:xlink="http://www.w3.org/1999/xlink" x="0px" y="0px"
	 viewBox="0 0 50 50" enable-background="new 0 0 50 50" xml:space="preserve">
<g>
	<rect x="22.5" y="12.5" fill="#B76D1C" width="5" height="5"/>
	<rect x="22.5" y="20" fill="#B76D1C" width="5" height="5"/>
	<rect x="22.5" y="25" fill="#B76D1C" width="5" height="5"/>
	<rect x="22.5" y="30" fill="#B76D1C" width="5" height="5"/>
	<rect x="22.5" y="35" fill="#B76D1C" width="5" height="5"/>
	<rect x="22.5" y="40" fill="#B76D1C" width="5" height="5"/>
	<rect x="22.5" y="42.5" fill="#B76D1C" width="5" height="5"/>
	<rect x="20" y="15" fill="#B76D1C" width="5" height="5"/>
	<rect x="25" y="15" fill="#B76D1C" width="5" height="5"/>
	<rect x="17.5" y="17.5" fill="#B76D1C" width="5" height="5"/>
	<rect x="17.5" y="22.5" fill="#B76D1C" width="5" height="5"/>
	<rect x="17.5" y="27.5" fill="#B76D1C" width="5" height="5"/>
	<rect x="17.5" y="32.5" fill="#B76D1C" width="5" height="5"/>
	<rect x="17.5" y="37.5" fill="#B76D1C" width="5" height="5"/>
	<rect x="17.5" y="42.5" fill="#B76D1C" width="5" height="5"/>
	<rect x="27.5" y="17.5" fill="#B76D1C" width="5" height="5"/>
	<rect x="27.5" y="22.5" fill="#B76D1C" width="5" height="5"/>
	<rect x="27.5" y="27.5" fill="#B76D1C" width="5" height="5"/>
	<rect x="27.5" y="32.5" fill="#B76D1C" width="5" height="5"/>
	<rect x="27.5" y="37.5" fill="#B76D1C" width="5" height="5"/>
	<rect x="27.5" y="42.5" fill="#B76D1C" width="5" height="5"/>
</g>
<rect x="22.5" y="2.5" fill="#382E10" width="5" height="5"/>
<rect x="22.5" y="7.5" width="5" height="5"/>
<rect x="20" y="20" fill="#D8B58F" width="2.5" height="25"/>
<rect x="17.5" y="25" width="15" height="17.5"/>
<rect x="22.5" y="17.5" fill="#D8B58F" width="2.5" height="2.5"/>
<g>
	<g>
		<rect x="23.3" y="32.5" fill="#FFFFFF" width="1" height="1"/>
		<rect x="24.2" y="33.5" fill="#FFFFFF" width="1" height="1"/>
		<rect x="25.2" y="32.5" fill="#FFFFFF" width="1" height="1"/>
		<rect x="23.3" y="34.4" fill="#FFFFFF" width="1" height="1"/>
		<rect x="25.2" y="34.4" fill="#FFFFFF" width="1" height="1"/>
	</g>
	<g>
		<rect x="19.4" y="32.5" fill="#FFFFFF" width="1" height="1"/>
		<rect x="20.4" y="33.5" fill="#FFFFFF" width="1" height="1"/>
		<rect x="21.3" y="32.5" fill="#FFFFFF" width="1" height="1"/>
		<rect x="19.4" y="34.4" fill="#FFFFFF" width="1" height="1"/>
		<rect x="21.3" y="34.4" fill="#FFFFFF" width="1" height="1"/>
	</g>
	<g>
		<rect x="27.1" y="32.5" fill="#FFFFFF" width="1" height="1"/>
		<rect x="28.1" y="33.5" fill="#FFFFFF" width="1" height="1"/>
		<rect x="29" y="32.5" fill="#FFFFFF" width="1" height="1"/>
		<rect x="27.1" y="34.4" fill="#FFFFFF" width="1" height="1"/>
		<rect x="29" y="34.4" fill="#FFFFFF" width="1" height="1"/>
	</g>
</g>
</svg>
